<?xml version="1.0" encoding="utf-8"?>
<!-- Generator: Adobe Illustrator 19.0.1, SVG Export Plug-In . SVG Version: 6.00 Build 0)  -->
<svg version="1.1" id="Слой_1" xmlns="http://www.w3.org/2000/svg" xmlns:xlink="http://www.w3.org/1999/xlink" x="0px" y="0px"
	 viewBox="-277 400.9 40 41" style="enable-background:new -277 400.9 40 41;" xml:space="preserve">
<style type="text/css">
	.st0{fill:#F15F2D;}
</style>
<g>
	<path class="st0" d="M-265.4,411.3h-5.6c0,0-4.5,0.2-4.4,4.5v0.1c-1,0.7-1.6,1.8-1.6,3c0,1.2,0.6,2.3,1.6,2.9
		c0,0.5,0.2,4.9,4.3,4.9c0,0,1.7,0.1,1.6,2.8v10.7c0,0-0.3,1.7,1.5,1.7c0,0,5-0.7,2.5-5.9c1.9-2-0.8-3.1,0.3-6.3c0,0,1.4-2,1.4-3.2
		v-13.6C-263.8,412.9-263.6,411.3-265.4,411.3z"/>
	<path class="st0" d="M-237,418.4c0-1.9-1.1-3.5-2.6-4.3v-12.5c0-1.7-1.4,0.2-1.4,0.2c-6.5,10.2-20,9.4-20,9.4
		c-1.6,0-1.3,1.4-1.3,1.4v11.8c0,1.4,1.4,1.4,1.4,1.4c15.1,0,20.3,9.5,20.3,9.5s1.2,1.5,1.1-0.1v-12.5
		C-238.1,421.8-237,420.2-237,418.4z M-254.5,412.4c0,0,8.9-1.3,13.2-7.9C-241.3,404.5-242.9,412.3-254.5,412.4z M-237.9,419.8
		c0,0,0.5-2.1-1.3-4.6C-239.2,415.1-236.9,416.5-237.9,419.8z"/>
</g>
</svg>
