<?xml version="1.0" encoding="utf-8"?>
<!-- Generator: Adobe Illustrator 19.0.1, SVG Export Plug-In . SVG Version: 6.00 Build 0)  -->
<svg version="1.1" id="Слой_1" xmlns="http://www.w3.org/2000/svg" xmlns:xlink="http://www.w3.org/1999/xlink" x="0px" y="0px"
	 viewBox="-295 417.1 4.5 7.8" style="enable-background:new -295 417.1 4.5 7.8;" xml:space="preserve">
<style type="text/css">
	.st0{fill:#FFFFFF;}
</style>
<g>
	<path class="st0" d="M-290.5,421.2l-3.7,3.6c0,0-0.1,0.1-0.2,0.1s-0.1,0-0.2-0.1l-0.3-0.4c-0.1,0-0.1-0.1-0.1-0.2
		c0,0,0-0.1,0.1-0.1l3.1-3.1l-3.1-3.1c-0.1,0-0.1-0.1-0.1-0.2c0-0.1,0-0.1,0.1-0.2l0.4-0.4c0,0,0.1,0,0.1,0s0.1,0,0.2,0.1l3.6,3.6
		c0,0,0.1,0.1,0.1,0.2S-290.5,421.1-290.5,421.2z"/>
</g>
</svg>
