<?xml version="1.0" encoding="utf-8"?>
<!-- Generator: Adobe Illustrator 19.0.1, SVG Export Plug-In . SVG Version: 6.00 Build 0)  -->
<svg version="1.1" id="Слой_1" xmlns="http://www.w3.org/2000/svg" xmlns:xlink="http://www.w3.org/1999/xlink" x="0px" y="0px"
	 viewBox="-277 409 40 24.9" style="enable-background:new -277 409 40 24.9;" xml:space="preserve">
<style type="text/css">
	.st0{fill:#F15F2D;}
</style>
<g>
	<path class="st0" d="M-257.7,425.2c0,0.6-0.5,1-1,1c-0.6,0-1-0.5-1-1c0-0.6,0.5-1,1-1C-258.1,424.2-257.7,424.7-257.7,425.2
		L-257.7,425.2z"/>
	<path class="st0" d="M-253.9,425.2c0,0.6-0.5,1-1,1c-0.6,0-1-0.5-1-1c0-0.6,0.5-1,1-1S-253.9,424.7-253.9,425.2L-253.9,425.2z"/>
	<path class="st0" d="M-263.6,416.1l0.7,0.5l2.5,6.5c0.1,0.2,0.3,0.3,0.5,0.3h6.2c0.2,0,0.4-0.1,0.5-0.3l2.1-5.4
		c0.1-0.2,0-0.3-0.1-0.5c-0.1-0.1-0.3-0.2-0.5-0.2h-9.2l-0.5-1.4c-0.1-0.2-0.2-0.3-0.4-0.4l-1-0.6c-0.4-0.3-0.9-0.1-1.2,0.3
		C-264.2,415.3-264.1,415.9-263.6,416.1L-263.6,416.1z"/>
	<path class="st0" d="M-237.7,430.2h-2.1v-19.7c0-0.8-0.7-1.5-1.5-1.5h-31.4c-0.9,0-1.6,0.7-1.6,1.5v19.7h-2c-0.4,0-0.7,0.3-0.7,0.7
		c0,1.6,1.3,3,3,3h23.9v-1.3c0-0.5,0.4-0.8,0.8-0.8c0.5,0,0.8,0.4,0.8,0.8v1.3h1.4v-1.3c0-0.5,0.4-0.8,0.8-0.8
		c0.5,0,0.8,0.4,0.8,0.8v1.3h5.5c1.6,0,3-1.3,3-3C-237,430.5-237.3,430.2-237.7,430.2L-237.7,430.2z M-242.5,429.2h-29.1v-17.6h29.2
		v17.6H-242.5z"/>
</g>
</svg>
