<?xml version="1.0" encoding="utf-8"?>
<!-- Generator: Adobe Illustrator 19.0.1, SVG Export Plug-In . SVG Version: 6.00 Build 0)  -->
<svg version="1.1" id="Слой_1" xmlns="http://www.w3.org/2000/svg" xmlns:xlink="http://www.w3.org/1999/xlink" x="0px" y="0px"
	 viewBox="-277 404 40 34.9" style="enable-background:new -277 404 40 34.9;" xml:space="preserve">
<style type="text/css">
	.st0{fill:#F15F2D;}
</style>
<g>
	<path class="st0" d="M-247.3,429.8c-0.6-0.8-1-1.7-1.2-2.7h-25.2c-0.3,0-0.6-0.3-0.6-0.6v-19.2c0-0.3,0.3-0.6,0.6-0.6h33
		c0.3,0,0.6,0.3,0.6,0.6v12.6c1,0.3,1.9,0.9,2.7,1.7v-14.3c-0.1-1.8-1.6-3.3-3.4-3.3h-33c-1.7,0-3.2,1.5-3.2,3.3v19.3
		c0,1.8,1.5,3.3,3.3,3.3h10.8v2c-2.1,0.2-3.7,2-3.7,4.1v1.2c0,0.6,0.4,1,1,1h16.8c0.6,0,1-0.4,1-1V436c0-2.1-1.6-3.9-3.7-4.1v-2h4.2
		V429.8z M-249.9,436v0.2h-14.7V436c0-1.2,1-2.2,2.2-2.2h10.4C-250.8,433.8-249.9,434.8-249.9,436L-249.9,436z"/>
	<path class="st0" d="M-245.2,431.6v6.9c0,0.2,0.1,0.3,0.2,0.3h0.1c0.1,0,0.2,0,0.3-0.1l2.1-2.4c0.1-0.1,0.2-0.1,0.3-0.1
		c0.1,0,0.2,0,0.3,0.1l2.1,2.4c0.1,0.1,0.2,0.1,0.3,0.1h0.1c0.1-0.1,0.2-0.2,0.2-0.3v-6.9c-0.9,0.5-1.9,0.8-3,0.8
		C-243.3,432.4-244.3,432.1-245.2,431.6L-245.2,431.6z"/>
	<path class="st0" d="M-242.2,420.7c-2.9,0-5.2,2.3-5.2,5.2s2.3,5.2,5.2,5.2c2.9,0,5.2-2.3,5.2-5.2
		C-237,423.1-239.3,420.7-242.2,420.7L-242.2,420.7z M-239.4,425.3l-1.1,1.1c-0.1,0.1-0.1,0.1-0.1,0.2l0.3,1.5c0,0.1,0,0.2-0.1,0.3
		c-0.1,0.1-0.2,0.1-0.3,0l-1.4-0.7c-0.1,0-0.2,0-0.2,0l-1.4,0.7c-0.1,0-0.2,0-0.3,0c-0.1-0.1-0.1-0.2-0.1-0.3l0.3-1.5
		c0-0.1,0-0.2-0.1-0.2l-1.1-1.1c-0.1-0.1-0.1-0.2-0.1-0.3c0-0.1,0.1-0.2,0.2-0.2l1.5-0.2c0.1,0,0.2-0.1,0.2-0.1l0.7-1.4
		c0-0.1,0.1-0.1,0.2-0.1c0.1,0,0.2,0.1,0.2,0.1l0.7,1.4c0,0.1,0.1,0.1,0.2,0.1l1.5,0.2c0.1,0,0.2,0.1,0.2,0.2
		C-239.3,425.1-239.3,425.2-239.4,425.3L-239.4,425.3z"/>
</g>
</svg>
