<?xml version="1.0" encoding="utf-8"?>
<!-- Generator: Adobe Illustrator 19.0.1, SVG Export Plug-In . SVG Version: 6.00 Build 0)  -->
<svg version="1.1" id="Слой_1" xmlns="http://www.w3.org/2000/svg" xmlns:xlink="http://www.w3.org/1999/xlink" x="0px" y="0px"
	 viewBox="0 0 14.7 15.7" style="enable-background:new 0 0 14.7 15.7;" xml:space="preserve">
<style type="text/css">
	.st0{fill:#F15F2D;}
</style>
<g>
	<path class="st0" d="M14.5,7.3L11.2,4c-0.3-0.3-0.7-0.3-1,0c-0.3,0.3-0.3,0.7,0,1l2.1,2.1H3.6c-0.4,0-0.7,0.3-0.7,0.7
		c0,0.4,0.3,0.7,0.7,0.7h8.7l-2.1,2.1c-0.3,0.3-0.3,0.7,0,1c0.1,0.1,0.3,0.2,0.5,0.2c0.2,0,0.4-0.1,0.5-0.2l3.3-3.3
		C14.8,8.1,14.8,7.6,14.5,7.3z"/>
	<path class="st0" d="M6.9,14.2H1.4V1.4h5.5c0.4,0,0.7-0.3,0.7-0.7C7.6,0.3,7.3,0,6.9,0H0.7C0.3,0,0,0.3,0,0.7V15
		c0,0.4,0.3,0.7,0.7,0.7h6.2c0.4,0,0.7-0.3,0.7-0.7C7.6,14.6,7.3,14.2,6.9,14.2z"/>
</g>
</svg>
