<?xml version="1.0" encoding="utf-8"?>
<!-- Generator: Adobe Illustrator 19.0.1, SVG Export Plug-In . SVG Version: 6.00 Build 0)  -->
<svg version="1.1" id="Слой_1" xmlns="http://www.w3.org/2000/svg" xmlns:xlink="http://www.w3.org/1999/xlink" x="0px" y="0px"
	 viewBox="-277 407.6 40 26.3" style="enable-background:new -277 407.6 40 26.3;" xml:space="preserve">
<style type="text/css">
	.st0{fill:#F15F2D;}
</style>
<path class="st0" d="M-244,418.9h-9.6c-0.5,0-0.8,0.4-0.8,0.8c0,0.5,0.4,0.8,0.8,0.8h9.6c0.5,0,0.8-0.4,0.8-0.8
	C-243.2,419.3-243.6,418.9-244,418.9L-244,418.9z"/>
<path class="st0" d="M-244,422.6h-9.6c-0.5,0-0.8,0.4-0.8,0.8s0.4,0.8,0.8,0.8h9.6c0.5,0,0.8-0.4,0.8-0.8S-243.6,422.6-244,422.6
	L-244,422.6z"/>
<path class="st0" d="M-240.5,415c-2.2-1.7-5.2-2.6-8.3-2.6c-1.9,0-3.7,0.3-5.4,1c-0.8-1.6-2.2-2.9-3.9-3.9c-2-1.2-4.5-1.8-7-1.8
	c-3.2-0.1-6.1,0.8-8.4,2.5c-2.2,1.8-3.5,4.2-3.5,6.7c0,2.3,1,4.4,2.9,6.1v5.5c0,0.3,0.1,0.6,0.4,0.7c0.3,0.2,0.6,0.1,0.8,0l5.7-3.2
	c0.6,0.1,1.3,0.1,1.9,0.1l0,0c1.9,0,3.7-0.3,5.3-1c0.6,1.2,1.5,2.2,2.7,3.1c2.2,1.7,5.2,2.6,8.3,2.6c0.6,0,1.3,0,1.9-0.1l5.7,3
	c0.3,0.2,0.6,0.1,0.8,0c0.2-0.2,0.4-0.4,0.4-0.7v-5.3c2.2-1.6,3.2-3.8,3.2-6.1C-237,419.1-238.3,416.8-240.5,415L-240.5,415z
	 M-265.2,424.5L-265.2,424.5c-0.7,0-1.3,0-2-0.1c-0.2,0-0.5,0-0.6,0.2l-4.6,2.6v-4.5l0,0c0-0.2-0.1-0.4-0.3-0.6
	c-1.7-1.5-2.7-3.3-2.7-5.2c0-4.2,4.6-7.6,10.2-7.6c4.2,0,7.9,1.9,9.5,4.8c-0.5,0.3-1,0.6-1.5,1c-2.3,1.8-3.5,4.1-3.5,6.6
	c0,0.7,0.1,1.4,0.3,2C-261.9,424.2-263.5,424.5-265.2,424.5L-265.2,424.5z M-241.3,426.8c-0.2,0.1-0.3,0.4-0.3,0.6l0,0v4.4l-4.7-2.5
	c-0.2-0.1-0.4-0.2-0.6-0.2c-0.7,0.1-1.3,0.1-2,0.1c-4.6,0-8.5-2.3-9.8-5.5l0,0c-0.3-0.7-0.4-1.4-0.4-2.2c0-4.3,4.7-7.6,10.2-7.6
	c5.6,0,10.2,3.4,10.2,7.6C-238.6,423.5-239.6,425.3-241.3,426.8L-241.3,426.8z"/>
<path class="st0" d="M-244,418.9h-9.6c-0.5,0-0.8,0.4-0.8,0.8c0,0.5,0.4,0.8,0.8,0.8h9.6c0.5,0,0.8-0.4,0.8-0.8
	C-243.2,419.3-243.6,418.9-244,418.9L-244,418.9z"/>
<path class="st0" d="M-244,422.6h-9.6c-0.5,0-0.8,0.4-0.8,0.8s0.4,0.8,0.8,0.8h9.6c0.5,0,0.8-0.4,0.8-0.8S-243.6,422.6-244,422.6
	L-244,422.6z"/>
</svg>
