<?xml version="1.0" encoding="utf-8"?>
<!-- Generator: Adobe Illustrator 19.0.1, SVG Export Plug-In . SVG Version: 6.00 Build 0)  -->
<svg version="1.1" id="Слой_1" xmlns="http://www.w3.org/2000/svg" xmlns:xlink="http://www.w3.org/1999/xlink" x="0px" y="0px"
	 viewBox="0 0 33.8 33.8" style="enable-background:new 0 0 33.8 33.8;" xml:space="preserve">
<style type="text/css">
	.st0{fill:#FFFFFF;}
</style>
<g>
	<path class="st0" d="M16.9,0C7.6,0,0,7.6,0,16.9s7.6,16.9,16.9,16.9c9.3,0,16.9-7.6,16.9-16.9S26.2,0,16.9,0z M16.9,32.8
		C8.1,32.8,1,25.6,1,16.9S8.1,1,16.9,1c8.8,0,15.9,7.1,15.9,15.9S25.6,32.8,16.9,32.8z"/>
	<polygon class="st0" points="16.9,16 11.5,10.6 10.8,11.3 16.2,16.7 16.2,16.7 16.9,17.4 16.9,17.4 16.9,17.4 17.6,16.7 17.6,16.7 
		22.9,11.3 22.2,10.6 	"/>
	<polygon class="st0" points="22.2,16.4 16.9,21.7 11.5,16.4 10.8,17.1 16.2,22.4 16.2,22.4 16.9,23.2 16.9,23.1 16.9,23.2 
		17.6,22.4 17.6,22.4 22.9,17.1 	"/>
</g>
</svg>
