<?xml version="1.0" encoding="utf-8"?>
<!-- Generator: Adobe Illustrator 19.0.1, SVG Export Plug-In . SVG Version: 6.00 Build 0)  -->
<svg version="1.1" id="Слой_1" xmlns="http://www.w3.org/2000/svg" xmlns:xlink="http://www.w3.org/1999/xlink" x="0px" y="0px"
	 viewBox="-289 413.9 16 15" style="enable-background:new -289 413.9 16 15;" xml:space="preserve">
<style type="text/css">
	.st0{fill:#FFFFFF;}
</style>
<path class="st0" d="M-274.9,418.3c0-1.3-1-2.4-2.2-2.4c-1.2,0-2.2,1.1-2.2,2.4c0,1.3,1,2.4,2.2,2.4
	C-275.9,420.7-274.9,419.7-274.9,418.3z M-281.8,425.6c0,1.4-1,2.4-2.2,2.4c-0.9,0-1.6-0.5-2-1.3c0.4,0.2,0.7,0.3,1.1,0.5
	c0.9,0.4,1.9-0.1,2.3-1.1s-0.1-2.1-1-2.5l-0.9-0.4c0.2,0,0.3-0.1,0.5-0.1C-282.7,423.1-281.8,424.2-281.8,425.6z M-274.3,418.3
	c0,1.7-1.2,3-2.7,3s-2.7-1.3-2.7-3c0-1.6,1.2-3,2.7-3C-275.6,415.4-274.3,416.7-274.3,418.3z M-273,418.3c0-2.4-1.8-4.4-4.1-4.4
	c-2.2,0-4,2-4,4.4l-2.5,4c-0.1,0-0.2,0-0.3,0c-0.6,0-1.1,0.2-1.5,0.5l-3.6-1.6v4.2l2.1,0.9c0.2,1.5,1.5,2.6,2.9,2.6
	c1.6,0,2.9-1.3,3-3l3.9-3.1C-274.8,422.8-273,420.8-273,418.3z"/>
</svg>
