<?xml version="1.0" encoding="utf-8"?>
<!-- Generator: Adobe Illustrator 19.0.1, SVG Export Plug-In . SVG Version: 6.00 Build 0)  -->
<svg version="1.1" id="Слой_1" xmlns="http://www.w3.org/2000/svg" xmlns:xlink="http://www.w3.org/1999/xlink" x="0px" y="0px"
	 viewBox="-277 399.3 40 42.6" style="enable-background:new -277 399.3 40 42.6;" xml:space="preserve">
<style type="text/css">
	.st0{fill:#F15F2D;}
</style>
<g>
	<path class="st0" d="M-263.7,423.8l-1.1,1c-0.2,0.1-0.2,0.3-0.2,0.6v0.4c0,0.4,0.3,0.8,0.8,0.8h6.4c0.4,0,0.8-0.3,0.8-0.8v-0.5
		c0-0.4-0.3-0.8-0.8-0.8h-3.5l0.1-0.1c2.3-2.2,3.9-4,3.9-6.3c0-1.8-1.2-3.7-3.8-3.7c-1.2,0-2.3,0.4-3.2,1c-0.3,0.2-0.4,0.6-0.2,0.9
		l0.2,0.4c0.1,0.2,0.3,0.4,0.5,0.4c0.2,0.1,0.5,0,0.7-0.1c0.6-0.4,1.2-0.6,1.8-0.6c1.2,0,1.8,0.6,1.8,1.7
		C-259.8,419.9-261,421.3-263.7,423.8z"/>
	<path class="st0" d="M-252.1,414.7L-252.1,414.7h-0.3c-0.3,0-0.5,0.1-0.6,0.3l-4.8,6.8c-0.1,0.1-0.1,0.3-0.1,0.4v0.5
		c0,0.4,0.3,0.8,0.8,0.8h4.4v2.2c0,0.4,0.3,0.8,0.8,0.8h0.7c0.4,0,0.8-0.3,0.8-0.8v-2.2h0.8c0.4,0,0.8-0.3,0.8-0.8v-0.5
		c0-0.4-0.3-0.8-0.8-0.8h-0.8v-6.1c0-0.4-0.3-0.8-0.8-0.8L-252.1,414.7C-252,414.7-252.1,414.7-252.1,414.7z M-252.8,421.6h-2.4
		c0.6-0.9,1.6-2.4,2.4-3.5V421.6z"/>
	<path class="st0" d="M-257,438.5c-9.2,0-16.7-7.5-16.7-16.7c0-8.7,6.7-15.9,15.2-16.6v2.7c0,0.2,0.1,0.4,0.3,0.5
		c0.1,0,0.2,0.1,0.2,0.1c0.1,0,0.2,0,0.3-0.1l6-4c0.1-0.1,0.2-0.3,0.2-0.4c0-0.2-0.1-0.3-0.2-0.4l-6-4c-0.1-0.3-0.3-0.3-0.4-0.2
		c-0.2,0.1-0.3,0.3-0.3,0.5v2.1c-10.4,0.6-18.6,9.3-18.6,19.8c0,11,9,20,20,20c5.1,0,10-1.9,13.7-5.4l-2.3-2.5
		C-248.7,436.9-252.7,438.5-257,438.5z"/>
	<path class="st0" d="M-239.9,411.4c-0.7-1.1-1.5-2.2-2.4-3.2l-2.5,2.3c0.7,0.8,1.4,1.7,2,2.6L-239.9,411.4z"/>
	<path class="st0" d="M-240.5,419.6l3.3-0.5c-0.2-1.3-0.5-2.6-0.9-3.9l-3.2,1.1C-240.9,417.4-240.6,418.5-240.5,419.6z"/>
	<path class="st0" d="M-245.5,405.4c-1.1-0.8-2.3-1.4-3.5-1.9l-1.4,3.1c1,0.4,2,1,2.9,1.6L-245.5,405.4z"/>
	<path class="st0" d="M-244.1,432.4l2.6,2.1c0.8-1,1.6-2.1,2.2-3.3l-3-1.6C-242.8,430.6-243.4,431.6-244.1,432.4z"/>
	<path class="st0" d="M-240.4,423.1c-0.1,1.1-0.3,2.2-0.6,3.3l3.2,0.9c0.4-1.3,0.6-2.6,0.7-3.9L-240.4,423.1z"/>
</g>
</svg>
