<?xml version="1.0" encoding="utf-8"?>
<!-- Generator: Adobe Illustrator 19.0.1, SVG Export Plug-In . SVG Version: 6.00 Build 0)  -->
<svg version="1.1" id="Слой_1" xmlns="http://www.w3.org/2000/svg" xmlns:xlink="http://www.w3.org/1999/xlink" x="0px" y="0px"
	 viewBox="0 0 26 15" style="enable-background:new 0 0 26 15;" xml:space="preserve">
<style type="text/css">
	.st0{fill:#FFFFFF;}
	.st1{fill:#F15F2D;}
	.st2{fill:#507299;}
</style>
<g>
	<g>
		<path class="st0" d="M-243.1-65.6v14.5h22v4.5h-22V-28h-8.7v-42.2h38v4.5H-243.1z"/>
		<path class="st0" d="M-187-70.2l17.2,42.2h-8.7l-4-10.2h-22.9l-4,10.2h-8.7l17.2-42.2H-187z M-203.3-42.7h18.7l-9-22.3h-0.6
			L-203.3-42.7z"/>
		<path class="st0" d="M-121.6-70.2V-28h-11.5l-22.6-34.3h-0.6V-28h-8.7v-42.2h11.4l22.6,34.4h0.6v-34.4H-121.6z"/>
		<path class="st0" d="M-86.1-49.4l16,21.4h-9.9l-13.9-18.7h-10.5V-28h-8.7v-42.2h8.7v19h9.9l13.9-19h9.6L-86.1-49.4z"/>
		<path class="st0" d="M-56.6-65.6v13.9h22v4.5h-22v14.8h28v4.5h-36.8v-42.2h36.8v4.5H-56.6z"/>
		<path class="st0" d="M1.6-40.6V-28h-8.7v-12.7l-19.6-29.5h9.6l14.2,21.4h0.3l14.2-21.4h9.6L1.6-40.6z"/>
		<path class="st0" d="M64.6-39.1c0,1.7-0.4,3.3-1.1,4.9c-0.7,1.5-1.9,2.8-3.5,3.9c-1.6,1.1-3.7,2-6.3,2.6c-2.6,0.6-5.8,1-9.6,1
			c-2.1,0-4.2-0.2-6.2-0.5c-2-0.3-4-0.8-5.8-1.4c-1.8-0.6-3.5-1.3-5.1-2.2c-1.5-0.9-2.9-1.8-4-2.9l3-3.6c2.3,2,5,3.5,8,4.5
			c3.1,1,6.4,1.5,10.1,1.5c4.1,0,6.9-0.6,8.6-1.7c1.7-1.1,2.5-2.7,2.5-4.6c0-1.5-0.7-2.8-2-3.9c-1.3-1-3.6-2.1-6.7-3.1L35-48.2
			c-3.8-1.2-6.6-2.7-8.6-4.6c-1.9-1.9-2.9-4.2-2.9-7.1c0-1.5,0.4-2.9,1.1-4.3s1.8-2.6,3.3-3.7c1.5-1.1,3.4-1.9,5.7-2.5
			c2.3-0.6,5.1-0.9,8.3-0.9c2,0,3.9,0.2,5.9,0.5c1.9,0.3,3.8,0.8,5.6,1.4c1.8,0.6,3.5,1.3,5,2.2c1.5,0.9,2.9,1.8,4,2.9l-3,3.6
			c-2.3-2-4.9-3.5-7.7-4.5c-2.9-1-6.1-1.5-9.8-1.5c-3,0-5.3,0.5-6.8,1.6c-1.5,1-2.3,2.3-2.3,3.9c0,0.8,0.1,1.6,0.4,2.2
			c0.3,0.6,0.8,1.2,1.4,1.7c0.7,0.5,1.5,1,2.6,1.5c1.1,0.5,2.4,1,4,1.5l11.4,3.6c3.7,1.2,6.5,2.7,8.6,4.6
			C63.5-44.4,64.6-42,64.6-39.1z"/>
	</g>
	<path class="st1" d="M-273.7-75.6c-19.2,0-30.9-7.4-30.9-7.4s-11.6,7.4-30.8,7.4c0,0-1.2,24.3,5.2,38.2c0.7,1.5,1.5,2.9,2.4,4.3
		c2.3-0.1,4.1,0.1,4.1,0.1c1,0.1,2.3-0.3,3-1l8.9-9l-1.9-1.9l-3.5,3.5l-6.2-6.3c-0.8-0.8-0.8-2.1,0-2.9c0.8-0.8,2.1-0.8,2.9,0
		l2.9,2.9l1.9-2l-1.8-1.8c-0.8-0.8-0.8-2.1,0-2.9c0.8-0.8,2.1-0.8,2.9,0l1.8,1.8l1.7-1.7l-2.8-2.8c-0.8-0.8-0.8-2.2,0-3
		c0.8-0.8,2.2-0.8,3,0l6.1,6.2l-3.5,3.5l1.9,1.9l5.5-5.6c1.5-1.5,3.9-1.5,5.4,0c1.4,1.4,1.5,3.6,0.3,5.1l-20.3,20.4
		c-0.7,0.7-1.1,2-1,3c0,0,0.3,2.1,0.1,4.7c3.4,2.4,7.3,4.5,11.8,6.1c12.9-4.7,21.2-12.9,25.7-22.6
		C-272.5-51.3-273.7-75.6-273.7-75.6z"/>
</g>
<path class="st2" d="M26,1.1c0,0-0.2-0.5-1.4-0.4l-3.9,0c-0.3,0-0.5,0.1-0.5,0.1s-0.2,0.1-0.3,0.4c-0.6,1.7-1.4,3.1-1.4,3.1
	c-1.7,3-2.4,3.2-2.7,3c-0.7-0.4-0.5-1.7-0.5-2.7c0-2.9,0.4-4.1-0.9-4.4C13.9,0.1,13.6,0,12.5,0c-1.4,0-2.6,0-3.2,0.3
	C8.8,0.6,8.5,1,8.7,1.1c0.3,0,0.8,0.2,1.2,0.6c0,0,0.3,0.6,0.4,1.8c0.1,3.4-0.5,3.8-0.5,3.8c-0.5,0.3-1.4-0.2-2.8-3
	c0,0-0.8-1.4-1.4-2.9C5.4,1.1,5.2,0.9,5.2,0.9S4.9,0.7,4.6,0.7l-3.7,0c-0.6,0-0.8,0.3-0.8,0.3s-0.2,0.2,0,0.7C3,8.5,6.3,12,6.3,12
	s3,3.2,6.4,3l0,0h1.6c0.5,0,0.7-0.3,0.7-0.3s0.2-0.2,0.2-0.7c0-2.1,0.9-2.4,0.9-2.4c0.9-0.3,2.2,2,3.5,2.9c0,0,1,0.7,1.7,0.5
	l3.5-0.1c1.8,0,1-1.5,1-1.5c-0.1-0.1-0.5-1.1-2.6-3c-2.2-2-1.9-1.7,0.7-5.2C25.5,3,26.2,1.6,26,1.1z"/>
</svg>
