<?xml version="1.0" encoding="utf-8"?>
<!-- Generator: Adobe Illustrator 19.0.1, SVG Export Plug-In . SVG Version: 6.00 Build 0)  -->
<svg version="1.1" id="Слой_1" xmlns="http://www.w3.org/2000/svg" xmlns:xlink="http://www.w3.org/1999/xlink" x="0px" y="0px"
	 viewBox="-284 413.9 26 15" style="enable-background:new -284 413.9 26 15;" xml:space="preserve">
<style type="text/css">
	.st0{fill:#FFFFFF;}
</style>
<path class="st0" d="M-258,415c0,0-0.2-0.5-1.4-0.4h-3.9c-0.3,0-0.5,0.1-0.5,0.1s-0.2,0.1-0.3,0.4c-0.6,1.7-1.4,3.1-1.4,3.1
	c-1.7,3-2.4,3.2-2.7,3c-0.7-0.4-0.5-1.7-0.5-2.7c0-2.9,0.4-4.1-0.9-4.4c-0.5-0.1-0.8-0.2-1.9-0.2c-1.4,0-2.6,0-3.2,0.3
	c-0.5,0.3-0.8,0.7-0.6,0.8c0.3,0,0.8,0.2,1.2,0.6c0,0,0.3,0.6,0.4,1.8c0.1,3.4-0.5,3.8-0.5,3.8c-0.5,0.3-1.4-0.2-2.8-3
	c0,0-0.8-1.4-1.4-2.9c-0.2-0.3-0.4-0.5-0.4-0.5s-0.3-0.2-0.6-0.2h-3.7c-0.6,0-0.8,0.3-0.8,0.3s-0.2,0.2,0,0.7
	c2.9,6.8,6.2,10.3,6.2,10.3s3,3.2,6.4,3l0,0h1.6c0.5,0,0.7-0.3,0.7-0.3s0.2-0.2,0.2-0.7c0-2.1,0.9-2.4,0.9-2.4
	c0.9-0.3,2.2,2,3.5,2.9c0,0,1,0.7,1.7,0.5l3.5-0.1c1.8,0,1-1.5,1-1.5c-0.1-0.1-0.5-1.1-2.6-3c-2.2-2-1.9-1.7,0.7-5.2
	C-258.5,416.9-257.8,415.5-258,415z"/>
</svg>
