<?xml version="1.0" encoding="utf-8"?>
<!-- Generator: Adobe Illustrator 19.0.1, SVG Export Plug-In . SVG Version: 6.00 Build 0)  -->
<svg version="1.1" id="Слой_1" xmlns="http://www.w3.org/2000/svg" xmlns:xlink="http://www.w3.org/1999/xlink" x="0px" y="0px"
	 viewBox="-277 400.9 40 40" style="enable-background:new -277 400.9 40 40;" xml:space="preserve">
<style type="text/css">
	.st0{fill:#F15F2D;}
</style>
<g>
	<path class="st0" d="M-248.6,431.9l4,4.6c-0.8,0.6-1.7,1.2-2.6,1.7c-3,1.7-6.3,2.7-9.9,2.7c-10.9,0-19.9-9-19.9-20s9-20,19.9-20
		c3.1,0,6.1,0.7,8.8,2c0.4,0.2,0.8,0.4,1.2,0.7l-1.8,1.6l-2.8-2.9l-4.7,4.2l-2.8-3l-8.7,7.8l5.6,6.1l-2.2,1.9l5.5,6.2l-2.2,1.9
		l7.8,8.7L-248.6,431.9z"/>
	<polygon class="st0" points="-239.1,419.5 -237,421.9 -239.4,424.1 -241.5,421.7 	"/>
	<polygon class="st0" points="-242.4,427.9 -239.2,431.5 -242.8,434.7 -246,431.1 	"/>
	<polygon class="st0" points="-251.8,406 -248.6,409.6 -252.2,412.8 -255.4,409.2 	"/>
	<polygon class="st0" points="-259.4,407.2 -255.1,412 -259.8,416.3 -264.1,411.5 	"/>
	<polygon class="st0" points="-248.9,419.9 -252.1,416.4 -248.6,413.2 -245.4,416.7 	"/>
	<polygon class="st0" points="-244.5,414.6 -242.2,412.5 -240,414.8 -242.4,417 	"/>
	<polygon class="st0" points="-245.9,427.5 -249.1,423.9 -245.5,420.7 -242.3,424.3 	"/>
	<polygon class="st0" points="-247.6,407.5 -245.2,405.4 -243.1,407.8 -245.4,409.9 	"/>
	<polygon class="st0" points="-256.4,424.4 -260.7,419.6 -256,415.3 -251.7,420.1 	"/>
	<polygon class="st0" points="-253.1,432.6 -257.3,427.9 -252.6,423.6 -248.3,428.3 	"/>
</g>
</svg>
