<?xml version="1.0" encoding="utf-8"?>
<!-- Generator: Adobe Illustrator 19.0.1, SVG Export Plug-In . SVG Version: 6.00 Build 0)  -->
<svg version="1.1" id="Слой_1" xmlns="http://www.w3.org/2000/svg" xmlns:xlink="http://www.w3.org/1999/xlink" x="0px" y="0px"
	 viewBox="-277 402.2 40 37.7" style="enable-background:new -277 402.2 40 37.7;" xml:space="preserve">
<style type="text/css">
	.st0{fill:#F15F2D;}
</style>
<path class="st0" d="M-237.1,417.3c-0.2-1.3-1.3-2.1-2.9-2.1c-0.5,0-1,0-1.4,0c-0.9-0.1-1.2,0.2-1.2,1c0,3.6,0,7.3,0,10.9
	c0,1.9-1.9,3.9-4.1,4.3c-6.9,1.5-13.9,3.1-20.8,4.6c-0.8,0.2-1.6,0.3-2.4,0.2c-0.4,0-0.8-0.3-1-0.5c-0.1-0.2,0.2-0.6,0.5-0.8
	c0.3-0.3,0.7-0.5,1.1-0.6c1.3-0.5,2.6-0.9,3.9-1.3c5.1-1.7,10.3-3.4,15.4-5.1c2.3-0.8,3.6-2.3,3.6-4.3c0.1-6.3,0-12.6,0-19
	c0-1-0.5-1.8-1.7-2.3c-1.4-0.5-2.6-0.1-3.8,0.5c-7.3,3.5-14.6,7-21.9,10.4c-2.1,1-3.3,2.5-3.3,4.6c0,6,0,11.9,0,17.9
	c0,0.3,0,0.6,0.1,0.9c0.7,2,2.6,3.2,5.1,3.2c5.1,0,10.3,0,15.4,0s10.2,0,15.3,0c1.1,0,2.1-0.2,3-0.9c1.1-0.9,1-2,1-3.1
	c0-5.8,0-11.6,0-17.5C-237,418.1-237,417.7-237.1,417.3z M-258.4,415.5c0.5-1.3,1.6-2.2,3.4-2.4c1.1-0.2,2.1,0.6,2.3,1.6
	c0.3,1.6-1.7,3.4-3.7,3.4C-258,418.1-258.9,416.9-258.4,415.5z"/>
</svg>
